PathFileType	4	(X/Y/Z)	/Users/rkoike/Documents/python/sports2d/webcam_20250606_145141/webcam_20250606_145141_px_person00.trc
DataRate	CameraRate	NumFrames	NumMarkers	Units	OrigDataRate	OrigDataStartFrame	OrigNumFrames
30	30	10	22	m	30	1509	4026
Frame#	Time	Hip			RHip			RKnee			RAnkle			RBigToe			RSmallToe			RHeel			LHip			LKnee			LAnkle			LBigToe			LSmallToe			LHeel			Neck			Head			Nose			RShoulder			RElbow			RWrist			LShoulder			LElbow			LWrist			
		X1	Y1	Z1	X2	Y2	Z2	X3	Y3	Z3	X4	Y4	Z4	X5	Y5	Z5	X6	Y6	Z6	X7	Y7	Z7	X8	Y8	Z8	X9	Y9	Z9	X10	Y10	Z10	X11	Y11	Z11	X12	Y12	Z12	X13	Y13	Z13	X14	Y14	Z14	X15	Y15	Z15	X16	Y16	Z16	X17	Y17	Z17	X18	Y18	Z18	X19	Y19	Z19	X20	Y20	Z20	X21	Y21	Z21	X22	Y22	Z22
1509	50.31249689440993	581.9996735686498	717.990715369462	0.0	469.2402296277335	718.1475665092347	0.0	247.14850988038458	717.5596835392704	0.0	469.2787006825124	691.7066100545621	0.0			0.0	1216.587890625	110.494140625	0.0			0.0	690.1430096412817	718.147442932267	0.0	822.1531712829684	720.7185755426282	0.0	954.2962422002433	700.3676375816644	0.0	1049.5675449983692	631.079417364846	0.0	1049.5675449983692	648.4014724190506	0.0	910.9911045647317	735.0117476900746	0.0	585.4534685638882	393.8503978842904	0.0	546.4672936683841	135.73095993065652	0.0	535.3095293844304	289.8033808281066	0.0	415.5997310851967	467.4052462498001	0.0	324.9326273642115	674.0534050295431	0.0	243.4622814847266	669.6480994511012	0.0	778.5981947373715	461.9396831627605	0.0	850.4338887592902	703.0698701646464	0.0	621.7486986380608	696.3581203545502	0.0
1510	50.34583850931676	581.3307974626146	718.2492145540308	0.0	469.641329748808	717.8963116295605	0.0	232.69621558511216	716.1810633622715	0.0	469.2787006825124	691.7066100545621	0.0			0.0	1216.587890625	110.494140625	0.0			0.0	689.3830376887473	717.8963589328181	0.0	822.5287463820545	720.9875546444825	0.0	954.2962422002433	700.3676375816644	0.0	1049.5675449983692	631.079417364846	0.0	1049.5675449983692	648.4014724190506	0.0	910.9911045647317	735.0117476900746	0.0	585.8037576887945	393.4140408910796	0.0	545.5486394867833	134.952807386952	0.0	532.3591228770537	287.2209548086822	0.0	416.42778563664376	465.83116445854284	0.0	323.6484491080313	675.5264754072258	0.0	243.2104627470314	663.2201801982143	0.0	778.4531717372035	461.0425823617341	0.0	848.9212899663835	702.9448162457794	0.0	618.8325554851292	693.9045865669748	0.0
1511	50.379180124223595	580.3228462181331	722.5941110835614	0.0	469.0604899815472	721.5153828273174	0.0	232.23796445351493	715.3365126643655	0.0	469.2787006825124	691.7066100545621	0.0			0.0	1216.587890625	110.494140625	0.0			0.0	690.5135186177173	721.5154235019481	0.0	822.4998036052508	722.4441013349583	0.0	954.2962422002433	700.3676375816644	0.0	1049.5675449983692	631.079417364846	0.0	1049.5675449983692	648.4014724190506	0.0	910.9911045647317	735.0117476900746	0.0	586.0681243699858	392.02868396403034	0.0	544.8833745120065	134.76074251591882	0.0	529.388003540109	285.29571627869757	0.0	418.0862534488895	465.168159009257	0.0	325.54402387136884	676.4220686440822	0.0	233.95665652748073	658.5183906400779	0.0	779.3881023035456	460.4974627103012	0.0	846.5683046782191	703.8559500163083	0.0	617.4722567648555	692.3886351310114	0.0
1512	50.41252173913043	579.2481143679189	729.9971163337393	0.0	468.255720475501	727.8341340231829	0.0	242.3745118282635	714.8739736156651	0.0	469.2787006825124	691.7066100545621	0.0			0.0	1216.587890625	110.494140625	0.0			0.0	692.8647891926552	727.8341417945637	0.0	822.3406283095102	724.9314088581755	0.0	954.2962422002433	700.3676375816644	0.0	1049.5675449983692	631.079417364846	0.0	1049.5675449983692	648.4014724190506	0.0	910.9911045647317	735.0117476900746	0.0	586.4299331736408	389.84734599364407	0.0	544.3503414831202	134.76569033920805	0.0	526.6795140462458	283.81698014440366	0.0	420.4343168260747	464.9001092693578	0.0	329.49383039616447	677.1216479921653	0.0	219.67237314577898	654.9199299437876	0.0	781.072651067388	460.06821797780185	0.0	843.518636652035	705.5741187265724	0.0	617.8626168466684	691.5351506122478	0.0
1513	50.445863354037265	578.4005125317593	737.5131325627179	0.0	469.5936703661353	733.589605452724	0.0	257.4929647525998	715.0823495061175	0.0	469.2787006825124	691.7066100545621	0.0			0.0	1216.587890625	110.494140625	0.0			0.0	693.6497410161809	733.5896092658417	0.0	822.1978221006364	727.8376764469973	0.0	954.2962422002433	700.3676375816644	0.0	1049.5675449983692	631.079417364846	0.0	1049.5675449983692	648.4014724190506	0.0	910.9911045647317	735.0117476900746	0.0	587.0968113042571	386.92382891890094	0.0	543.6100270203643	133.78344144348355	0.0	526.0159124765191	282.80483982561725	0.0	422.7316829021005	463.84933690495404	0.0	332.41908742242197	679.5076748942566	0.0	214.94403784253504	653.7157361341622	0.0	782.6885641902227	459.3831203855729	0.0	840.947212412956	708.4713219561969	0.0	621.0787291072052	691.2632771853887	0.0
1514	50.479204968944096	578.0521990312074	742.4797877190668	0.0	475.428704366868	735.935755611217	0.0	274.11251777277295	716.771571753626	0.0	469.2787006825124	691.7066100545621	0.0			0.0	1216.587890625	110.494140625	0.0			0.0	690.0701948818493	735.9357620727511	0.0	822.0930421978201	730.2465678644248	0.0	954.2962422002433	700.3676375816644	0.0	1049.5675449983692	631.079417364846	0.0	1049.5675449983692	648.4014724190506	0.0	910.9911045647317	735.0117476900746	0.0	588.0407051818395	383.40527208130896	0.0	542.312606838867	130.82319138855343	0.0	529.1402942517044	282.6896221601713	0.0	424.0323576714918	461.33660231106313	0.0	331.67232639201126	685.63047256544	0.0	234.99626295818481	657.6529802336913	0.0	783.5943108761556	458.12141115932536	0.0	840.610302478044	713.0246228657234	0.0	628.6033758867515	691.6628206349687	0.0
1515	50.51254658385093	578.1165028785134	744.2319224984001	0.0	483.5809528569341	735.2542794200406	0.0	286.1138596626828	719.8820380940971	0.0	469.2787006825124	691.7066100545621	0.0			0.0	1216.587890625	110.494140625	0.0			0.0	683.5402134312527	735.2542479853464	0.0	822.0212381425625	730.8505279521901	0.0	954.2962422002433	700.3676375816644	0.0	1049.5675449983692	631.079417364846	0.0	1049.5675449983692	648.4014724190506	0.0	910.9911045647317	735.0117476900746	0.0	588.5661333679425	380.632256032114	0.0	540.5840424608207	127.20915850471528	0.0	533.4745153373825	283.4141602773926	0.0	423.85990968039516	458.8695561459602	0.0	328.34493686113154	693.9429348925836	0.0	272.088034464916	665.6908438709156	0.0	783.8928591565057	456.50166353053567	0.0	843.1362854363639	717.6335786534685	0.0	637.5276351445202	692.0060617026138	0.0
1516	50.54588819875776	578.1706287317553	744.2803583610906	0.0	488.56849393298455	734.6678158643617	0.0	286.77102257583323	723.1680444445403	0.0	469.2787006825124	691.7066100545621	0.0			0.0	1216.587890625	110.494140625	0.0			0.0	678.8313532728579	734.6677069916701	0.0	821.982015658736	728.9448931403415	0.0	954.2962422002433	700.3676375816644	0.0	1049.5675449983692	631.079417364846	0.0	1049.5675449983692	648.4014724190506	0.0	910.9911045647317	735.0117476900746	0.0	587.8467749916331	380.3009179348754	0.0	538.9297113560755	125.69286952730144	0.0	533.6043831186931	284.1889896917306	0.0	422.62201114022844	458.93857744401663	0.0	326.3678560149538	700.1354969001042	0.0	299.48443879278085	672.6617581144405	0.0	784.2560101662073	455.1461603999947	0.0	847.2889701565657	719.5423891092926	0.0	641.8545302492826	691.0801198037216	0.0
1517	50.57922981366459	577.9864655048164	744.3146435900192	0.0	488.6525390696654	735.9714369445363	0.0	277.4055272369913	725.7761345894598	0.0	469.2787006825124	691.7066100545621	0.0			0.0	1216.587890625	110.494140625	0.0			0.0	677.9045910463252	735.9713906339073	0.0	821.9645174119155	725.3224373535476	0.0	954.2962422002433	700.3676375816644	0.0	1049.5675449983692	631.079417364846	0.0	1049.5675449983692	648.4014724190506	0.0	910.9911045647317	735.0117476900746	0.0	585.9831377853644	382.28195909827355	0.0	537.5947730677254	126.9096683517625	0.0	528.2904371797918	284.51616650204494	0.0	421.0790877664427	461.79486125666614	0.0	327.4140700522486	702.6894528503648	0.0	305.9706085188036	675.9226146030427	0.0	785.0362700362431	454.29577279344073	0.0	851.5770374915996	718.3947267186837	0.0	640.271464828446	688.7625364351085	0.0
1518	50.61257142857142	577.5288949235157	744.5387898448585	0.0	486.60428562212905	737.9434737258267	0.0	265.61641247354663	727.6500016545956	0.0	469.2787006825124	691.7066100545621	0.0			0.0	1216.587890625	110.494140625	0.0			0.0	678.7024284819363	737.9439450568098	0.0	821.9518593211794	721.294908904947	0.0	954.2962422002433	700.3676375816644	0.0	1049.5675449983692	631.079417364846	0.0	1049.5675449983692	648.4014724190506	0.0	910.9911045647317	735.0117476900746	0.0	583.9111769451916	384.7253436889042	0.0	536.740131418193	129.05649596679206	0.0	521.5766452240863	284.5087000371039	0.0	419.6656013974908	465.3543105768176	0.0	329.52180831723996	703.3151463711232	0.0	302.9139357502367	677.0548879304506	0.0	785.8776173656619	453.7687299074087	0.0	855.1969130713104	716.1306901812787	0.0	636.7775951039889	686.0506416312028	0.0
